<svg width="328" height="100" viewBox="0 0 328 100" fill="none" xmlns="http://www.w3.org/2000/svg">
<path d="M14.1 80.3C14.8 79.6 14.8 79.6 17.7 79.4C17.9 79.1 17.8 78.9 17.8 78.6C17.8 64.7 17.8 50.8 17.8 36.9C17.8 36.2 18 35.4 18.6 34.9C22.5 31.1 26.3 27.2 30.2 23.3C30.6 22.9 31.1 22.6 31.7 22.5C37.5 20.9 43.4 19.4 49.2 17.8C49.8 17.6 50.4 17.6 51 17.8C56.9 19.4 62.7 21 68.6 22.5C69.1 22.6 69.6 22.9 70 23.3C73.9 27.2 77.8 31.1 81.7 35C82.2 35.5 82.4 36.1 82.4 36.7C82.4 50.7 82.4 64.6 82.4 78.6V79.4C83.1 79.4 83.8 79.4 84.5 79.4C85.5 79.4 86.1 80 86.1 80.8C86.1 81.7 85.5 82.2 84.5 82.2H74.7C55.2 82.2 35.7 82.2 16.2 82.2C15.4 82.3 14.6 82 14.1 81.3V80.3ZM72.5 79.5H79.5C79.5 79.4 79.5 79.3 79.5 79.2C79.5 65.3 79.5 51.3 79.5 37.4C79.5 37.1 79.4 36.8 79.2 36.6C75.6 32.9 71.9 29.3 68.3 25.6C68.1 25.4 67.8 25.2 67.5 25.1L50.7 20.6C50.4 20.5 50 20.5 49.7 20.6L33 25.1C32.6 25.2 32.3 25.4 32.1 25.6C28.5 29.2 24.9 32.8 21.3 36.4C21 36.7 20.8 37.1 20.9 37.5C20.9 51.2 20.9 64.9 20.9 78.7C20.9 78.9 20.8 79.2 21 79.4H32.9V56.1C32.9 54.7 33.3 54.2 34.8 54.2H66.2C67.6 54.2 68.1 54.6 68.1 56.1C68.1 63.6 68.1 71.2 68.1 78.7C68 79 68.1 79.2 68.2 79.5H72.5ZM64.7 57H35.3V60.4H64.7V57ZM35.3 66.8H64.8V63.4H35.3V66.8ZM64.7 69.7H35.3V73.1H64.7V69.7ZM35.3 79.4H64.8V76H35.3V79.4Z" fill="white"/>
<path d="M27.5 79.5V49.3H72.4V79.5H67.6C67.5 79.3 67.5 79 67.5 78.7C67.5 71.2 67.5 63.6 67.5 56.1C67.5 54.7 67.1 54.2001 65.6 54.2001H34.3C32.9 54.2001 32.4 54.6 32.4 56.1V79.5H27.5Z" fill="#D5FFA2"/>
<path d="M58.4 31.8V40.1H41.6V31.8H58.4Z" fill="#D5FFA2"/>
<path d="M106.034 66H100.761L108.795 42.7273H115.136L123.159 66H117.886L112.057 48.0455H111.875L106.034 66ZM105.705 56.8523H118.159V60.6932H105.705V56.8523ZM140.335 42.7273H145.256V57.8409C145.256 59.5379 144.85 61.0227 144.04 62.2955C143.237 63.5682 142.112 64.5606 140.665 65.2727C139.218 65.9773 137.532 66.3295 135.608 66.3295C133.676 66.3295 131.987 65.9773 130.54 65.2727C129.093 64.5606 127.968 63.5682 127.165 62.2955C126.362 61.0227 125.96 59.5379 125.96 57.8409V42.7273H130.881V57.4205C130.881 58.3068 131.074 59.0947 131.46 59.7841C131.854 60.4735 132.407 61.0152 133.119 61.4091C133.831 61.803 134.661 62 135.608 62C136.563 62 137.392 61.803 138.097 61.4091C138.809 61.0152 139.358 60.4735 139.744 59.7841C140.138 59.0947 140.335 58.3068 140.335 57.4205V42.7273ZM148.418 46.7841V42.7273H167.531V46.7841H160.406V66H155.543V46.7841H148.418ZM191.003 54.3636C191.003 56.9015 190.522 59.0606 189.56 60.8409C188.605 62.6212 187.302 63.9811 185.651 64.9205C184.007 65.8523 182.158 66.3182 180.105 66.3182C178.037 66.3182 176.181 65.8485 174.537 64.9091C172.893 63.9697 171.594 62.6098 170.639 60.8295C169.685 59.0492 169.207 56.8939 169.207 54.3636C169.207 51.8258 169.685 49.6667 170.639 47.8864C171.594 46.1061 172.893 44.75 174.537 43.8182C176.181 42.8788 178.037 42.4091 180.105 42.4091C182.158 42.4091 184.007 42.8788 185.651 43.8182C187.302 44.75 188.605 46.1061 189.56 47.8864C190.522 49.6667 191.003 51.8258 191.003 54.3636ZM186.014 54.3636C186.014 52.7197 185.768 51.3333 185.276 50.2045C184.791 49.0758 184.105 48.2197 183.219 47.6364C182.332 47.053 181.295 46.7614 180.105 46.7614C178.916 46.7614 177.878 47.053 176.991 47.6364C176.105 48.2197 175.416 49.0758 174.923 50.2045C174.438 51.3333 174.196 52.7197 174.196 54.3636C174.196 56.0076 174.438 57.3939 174.923 58.5227C175.416 59.6515 176.105 60.5076 176.991 61.0909C177.878 61.6742 178.916 61.9659 180.105 61.9659C181.295 61.9659 182.332 61.6742 183.219 61.0909C184.105 60.5076 184.791 59.6515 185.276 58.5227C185.768 57.3939 186.014 56.0076 186.014 54.3636ZM202.054 66V42.7273H211.236C213.001 42.7273 214.505 43.0644 215.747 43.7386C216.99 44.4053 217.937 45.3333 218.588 46.5227C219.247 47.7045 219.577 49.0682 219.577 50.6136C219.577 52.1591 219.243 53.5227 218.577 54.7045C217.91 55.8864 216.944 56.8068 215.679 57.4659C214.421 58.125 212.899 58.4545 211.111 58.4545H205.259V54.5114H210.315C211.262 54.5114 212.043 54.3485 212.656 54.0227C213.277 53.6894 213.74 53.2311 214.043 52.6477C214.353 52.0568 214.509 51.3788 214.509 50.6136C214.509 49.8409 214.353 49.1667 214.043 48.5909C213.74 48.0076 213.277 47.5568 212.656 47.2386C212.035 46.9129 211.247 46.75 210.293 46.75H206.974V66H202.054ZM244.159 54.3636C244.159 56.9015 243.678 59.0606 242.716 60.8409C241.761 62.6212 240.458 63.9811 238.807 64.9205C237.163 65.8523 235.314 66.3182 233.261 66.3182C231.193 66.3182 229.337 65.8485 227.693 64.9091C226.049 63.9697 224.75 62.6098 223.795 60.8295C222.841 59.0492 222.364 56.8939 222.364 54.3636C222.364 51.8258 222.841 49.6667 223.795 47.8864C224.75 46.1061 226.049 44.75 227.693 43.8182C229.337 42.8788 231.193 42.4091 233.261 42.4091C235.314 42.4091 237.163 42.8788 238.807 43.8182C240.458 44.75 241.761 46.1061 242.716 47.8864C243.678 49.6667 244.159 51.8258 244.159 54.3636ZM239.17 54.3636C239.17 52.7197 238.924 51.3333 238.432 50.2045C237.947 49.0758 237.261 48.2197 236.375 47.6364C235.489 47.053 234.451 46.7614 233.261 46.7614C232.072 46.7614 231.034 47.053 230.148 47.6364C229.261 48.2197 228.572 49.0758 228.08 50.2045C227.595 51.3333 227.352 52.7197 227.352 54.3636C227.352 56.0076 227.595 57.3939 228.08 58.5227C228.572 59.6515 229.261 60.5076 230.148 61.0909C231.034 61.6742 232.072 61.9659 233.261 61.9659C234.451 61.9659 235.489 61.6742 236.375 61.0909C237.261 60.5076 237.947 59.6515 238.432 58.5227C238.924 57.3939 239.17 56.0076 239.17 54.3636ZM247.804 66V42.7273H256.986C258.743 42.7273 260.243 43.0417 261.486 43.6705C262.736 44.2917 263.687 45.1742 264.338 46.3182C264.997 47.4545 265.327 48.7917 265.327 50.3295C265.327 51.875 264.993 53.2045 264.327 54.3182C263.66 55.4242 262.694 56.2727 261.429 56.8636C260.171 57.4545 258.649 57.75 256.861 57.75H250.713V53.7955H256.065C257.005 53.7955 257.785 53.6667 258.406 53.4091C259.027 53.1515 259.49 52.7652 259.793 52.25C260.103 51.7348 260.259 51.0947 260.259 50.3295C260.259 49.5568 260.103 48.9053 259.793 48.375C259.49 47.8447 259.024 47.4432 258.395 47.1705C257.774 46.8902 256.99 46.75 256.043 46.75H252.724V66H247.804ZM260.372 55.4091L266.156 66H260.724L255.065 55.4091H260.372ZM267.918 46.7841V42.7273H287.031V46.7841H279.906V66H275.043V46.7841H267.918ZM291.347 66H286.074L294.108 42.7273H300.449L308.472 66H303.199L297.369 48.0455H297.188L291.347 66ZM291.017 56.8523H303.472V60.6932H291.017V56.8523ZM311.273 66V42.7273H316.193V61.9432H326.17V66H311.273Z" fill="white"/>
</svg>
