<?xml version="1.0" ?><svg xmlns="http://www.w3.org/2000/svg" xmlns:xlink="http://www.w3.org/1999/xlink" version="1.1" id="design" viewBox="0 0 100 100" style="enable-background:new 0 0 100 100;" xml:space="preserve"><style type="text/css">
	.st0{fill:#fff;}
	.st1{fill:#D5FFA2;}
</style><g><path class="st0" d="M14.1,80.3c0.7-0.7,0.7-0.7,3.6-0.9c0.2-0.3,0.1-0.5,0.1-0.8c0-13.9,0-27.8,0-41.7c0-0.7,0.2-1.5,0.8-2   c3.9-3.8,7.7-7.7,11.6-11.6c0.4-0.4,0.9-0.7,1.5-0.8c5.8-1.6,11.7-3.1,17.5-4.7c0.6-0.2,1.2-0.2,1.8,0c5.9,1.6,11.7,3.2,17.6,4.7   c0.5,0.1,1,0.4,1.4,0.8c3.9,3.9,7.8,7.8,11.7,11.7c0.5,0.5,0.7,1.1,0.7,1.7c0,14,0,27.9,0,41.9v0.8c0.7,0,1.4,0,2.1,0   c1,0,1.6,0.6,1.6,1.4c0,0.9-0.6,1.4-1.6,1.4h-9.8c-19.5,0-39,0-58.5,0c-0.8,0.1-1.6-0.2-2.1-0.9V80.3z M72.5,79.5h7   c0-0.1,0-0.2,0-0.3c0-13.9,0-27.9,0-41.8c0-0.3-0.1-0.6-0.3-0.8c-3.6-3.7-7.3-7.3-10.9-11c-0.2-0.2-0.5-0.4-0.8-0.5l-16.8-4.5   c-0.3-0.1-0.7-0.1-1,0l-16.7,4.5c-0.4,0.1-0.7,0.3-0.9,0.5c-3.6,3.6-7.2,7.2-10.8,10.8c-0.3,0.3-0.5,0.7-0.4,1.1   c0,13.7,0,27.4,0,41.2c0,0.2-0.1,0.5,0.1,0.7h11.9V56.1c0-1.4,0.4-1.9,1.9-1.9h31.4c1.4,0,1.9,0.4,1.9,1.9c0,7.5,0,15.1,0,22.6   c-0.1,0.3,0,0.5,0.1,0.8H72.5z M64.7,57H35.3v3.4h29.4V57z M35.3,66.8h29.5v-3.4H35.3L35.3,66.8z M64.7,69.7H35.3v3.4h29.4V69.7z    M35.3,79.4h29.5V76H35.3L35.3,79.4z"/><path class="st1" d="M27.5,79.5V49.3h44.9v30.2h-4.8c-0.1-0.2-0.1-0.5-0.1-0.8c0-7.5,0-15.1,0-22.6c0-1.4-0.4-1.9-1.9-1.9H34.3   c-1.4,0-1.9,0.4-1.9,1.9v23.4H27.5z"/><path class="st1" d="M58.4,31.8v8.3H41.6v-8.3H58.4z"/></g></svg>