<?xml version="1.0" ?><!DOCTYPE svg  PUBLIC '-//W3C//DTD SVG 1.1//EN'  'http://www.w3.org/Graphics/SVG/1.1/DTD/svg11.dtd'><svg xmlns="http://www.w3.org/2000/svg" xmlns:xlink="http://www.w3.org/1999/xlink" xmlns:serif="http://www.serif.com/" width="100%" height="100%" viewBox="0 0 64 64" version="1.1" xml:space="preserve" style="fill-rule:evenodd;clip-rule:evenodd;stroke-linejoin:round;stroke-miterlimit:2;"><g><g transform="matrix(6.12323e-17,1,-1,6.12323e-17,64,3.25)"><path d="M7,3L7,61C7,62.105 7.895,63 9,63L48.5,63C49.605,63 50.5,62.105 50.5,61L50.5,3C50.5,1.895 49.605,1 48.5,1L9,1C7.895,1 7,1.895 7,3ZM11,5L11,59L46.5,59L46.5,5L11,5Z"/></g><g transform="matrix(1,0,0,1,2.46203e-12,5.99978)"><path d="M8.824,15.617L30.824,31.617C31.525,32.128 32.475,32.128 33.176,31.617L55.176,15.617C56.069,14.968 56.267,13.716 55.617,12.824C54.968,11.931 53.716,11.733 52.824,12.383L32,27.527C32,27.527 11.176,12.383 11.176,12.383C10.284,11.733 9.032,11.931 8.383,12.824C7.733,13.716 7.931,14.968 8.824,15.617Z"/></g></g></svg>